<?xml version="1.0" encoding="UTF-8"?>
<svg id="Layer_2" data-name="Layer 2" xmlns="http://www.w3.org/2000/svg" viewBox="0 0 1062.08 984.32">
  <defs>
    <style>
      .cls-1 {
        fill: #F2FF02;
        stroke-width: 0px;
      }
    </style>
  </defs>
  <g id="Layer_1-2" data-name="Layer 1">
    <path class="cls-1" d="M342.81,984c-96.35-.02-192.69.04-289.04-.05-45.79-.04-60.25-18.19-51.21-63.4C60.82,629.3,119.03,338.04,177.3,46.79,184.97,8.47,194.64.26,232.75.24c165.02-.08,330.04-.61,495.06.24,65.85.34,130.36,9.67,192.52,34.01,179.32,70.24,164.56,264.24,86.85,356.14-18,21.29-39.17,38.83-61.19,55.77-24.41,18.78-25.87,41.6-5.77,62.97,123.19,130.96,95.2,312.99-62.13,402.44-94.45,53.7-197.91,70.64-304.67,72.02-76.86.99-153.74.19-230.62.17ZM756.31,193c-2.92-19.25-17.2-14.97-30.26-12.4-78.37,15.43-156.66,31.22-235.08,46.41-17.38,3.36-29.73,11.73-38.09,27.47-43.18,81.4-86.99,162.48-129.95,244-13.14,24.92-6.8,36.58,21.85,43.25,32.9,7.66,65.97,14.6,98.92,22.04,37.52,8.47,41.63,17.29,24.81,53.13-29.57,63-59.18,125.98-88.92,188.89-6.21,13.14-8.84,25.66,5.03,35.45,13.85,9.77,24.87,3.5,35.03-7.13,19.81-20.73,39.84-41.26,59.79-61.86,84.8-87.59,169.62-175.16,254.4-262.77,9.27-9.58,19.79-18.91,14.57-34.49-5.34-15.94-19.94-15.94-32.86-17.64-21.33-2.8-42.8-4.48-64.18-6.95-39.75-4.59-46.6-18.65-24.96-51.88,39.12-60.06,78.54-119.92,117.73-179.92,4.97-7.61,11.8-14.39,12.17-25.61Z"/>
  </g>
</svg>