<?xml version="1.0" encoding="UTF-8"?>
<svg id="Layer_2" data-name="Layer 2" xmlns="http://www.w3.org/2000/svg" viewBox="0 0 581.45 882.67">
  <defs>
    <style>
      .cls-1 {
        fill: #f2ff02;
        stroke-width: 0px;
      }
    </style>
  </defs>
  <g id="Layer_1-2" data-name="Layer 1">
    <path class="cls-1" d="M581.45,19.42c-3.86-25.45-22.73-19.79-39.99-16.39-103.58,20.4-207.07,41.27-310.71,61.34-22.97,4.45-39.3,15.5-50.34,36.31C123.33,208.27,65.43,315.43,8.65,423.18c-17.36,32.94-8.98,48.35,28.88,57.17,43.49,10.12,87.19,19.3,130.74,29.14,49.59,11.2,55.02,22.85,32.79,70.23-39.08,83.27-78.22,166.51-117.53,249.67-8.21,17.37-11.69,33.92,6.65,46.86,18.3,12.92,32.87,4.62,46.3-9.43,26.19-27.4,52.66-54.54,79.02-81.77,112.09-115.77,224.19-231.52,336.25-347.31,12.26-12.67,26.16-25,19.26-45.59-7.06-21.07-26.36-21.07-43.43-23.31-28.19-3.71-56.57-5.92-84.83-9.18-52.54-6.06-61.59-24.65-32.99-68.57,51.7-79.38,103.8-158.5,155.61-237.81,6.57-10.05,15.6-19.02,16.09-33.85Z"/>
  </g>
</svg>